<?xml version="1.0" encoding="UTF-8" standalone="no"?>
<svg
   viewBox="0 0 280 280"
   height="280"
   width="280"
   version="1.1"
   id="svg35"
   xmlns="http://www.w3.org/2000/svg"
   xmlns:svg="http://www.w3.org/2000/svg">
  <defs
     id="defs39" />
  <g
     id="g33">
    <svg
       viewBox="0 0 280 280"
       height="280"
       width="280"
       version="1.1"
       id="svg31">
      <g
         id="g29">
        <svg
           viewBox="0 0 280 280"
           height="280"
           width="280"
           version="1.1"
           id="svg27">
          <g
             id="g25">
            <svg
               viewBox="0 0 280 280"
               height="280"
               width="280"
               version="1.1"
               id="svg23">
              <g
                 id="g21">
                <svg
                   viewBox="0 0 280 280"
                   height="280"
                   width="280"
                   version="1.1"
                   id="svg19">
                  <g
                     transform="matrix(1,0,0,1,57.98550339329451,57.50420886156945)"
                     id="g15">
                    <svg
                       viewBox="0 0 164.02899321341098 164.9915822768611"
                       height="164.9915822768611"
                       width="164.02899321341098"
                       version="1.1"
                       id="svg13">
                      <g
                         id="g11">
                        <circle
                           r="82.49579113843055"
                           cx="82.49579113843055"
                           cy="82.49579113843055"
                           fill="#fca903"
                           data-fill-palette-color="accent"
                           id="circle2" />
                        <svg
                           viewBox="2 3 60 58"
                           style="enable-background:new 0 0 64 64"
                           xml:space="preserve"
                           x="24.54319982062253"
                           y="24.54319982062253"
                           height="115.90518263561603"
                           width="114.94259357216592"
                           class="icon-o-0"
                           data-fill-palette-color="background"
                           id="o-0"
                           version="1.1"><path
                             d="M55 40.493v1.438c3.945-0.493 7-3.852 7-7.931a8 8 0 0 0-8-8H40a8 8 0 0 0-8 8c0 4.079 3.055 7.438 7 7.931v-1.438a5.559 5.559 0 0 1-3-4.931A5.562 5.562 0 0 1 41.562 30h10.875A5.559 5.559 0 0 1 55 40.493zM10 32v-1l-0.925-0.463A5.562 5.562 0 0 1 11.562 20h6.875A5.562 5.562 0 0 1 24 25.562a5.56 5.56 0 0 1-3.075 4.975L20 31v1a8 8 0 0 0 0-16H10a8 8 0 0 0 0 16zM43 9v15h8V9h-8z m4 12h-2v-2h2v2z m0-4h-2v-2h2v2z m0-4h-2v-2h2v2zM12 9h6v5h-6zM8 7h48a5.008 5.008 0 0 0 4.899-4H3.101A5.008 5.008 0 0 0 8 7zM31 43h-2v4h-8v-4h-2v8h12zM19.46 53c0.954 1.063 1.54 2.462 1.54 4s-0.586 2.937-1.54 4h5.081a5.965 5.965 0 0 1-0.001-8h-5.08z"
                             fill="#ffffff"
                             data-fill-palette-color="background"
                             id="path4" /><path
                             d="M23 43h4v2h-4zM3 41v10h9.82l-1.667-10zM3 53v8h7.54C9.586 59.937 9 58.538 9 57s0.586-2.937 1.54-4H3zM15 53c-2.206 0-4 1.794-4 4s1.794 4 4 4 4-1.794 4-4-1.794-4-4-4z m1 5h-2v-2h2v2zM33.46 53c0.954 1.063 1.54 2.462 1.54 4s-0.586 2.937-1.54 4h5.081a5.965 5.965 0 0 1-0.001-8h-5.08zM43 53c-2.206 0-4 1.794-4 4s1.794 4 4 4 4-1.794 4-4-1.794-4-4-4z m1 5h-2v-2h2v2zM47.46 53c0.954 1.063 1.54 2.462 1.54 4s-0.586 2.937-1.54 4h5.081a5.965 5.965 0 0 1-0.001-8h-5.08zM57 53c-2.206 0-4 1.794-4 4s1.794 4 4 4 4-1.794 4-4-1.794-4-4-4z m1 5h-2v-2h2v2zM29 53c-2.206 0-4 1.794-4 4s1.794 4 4 4 4-1.794 4-4-1.794-4-4-4z m1 5h-2v-2h2v2zM45 37h4v2h-4z"
                             fill="#ffffff"
                             data-fill-palette-color="background"
                             id="path6" /><path
                             d="M41 37v8h12v-8h-2v4h-8v-4z"
                             fill="#ffffff"
                             data-fill-palette-color="background"
                             id="path8" /></svg>
                      </g>
                    </svg>
                  </g>
                  <path
                     d="M6.412 94.836l1.388 0.411-0.898 3.038 10.904 3.225 0.898-3.038 1.368 0.405-2.312 7.815-1.368-0.404 0.899-3.038-10.904-3.225-0.898 3.038-1.388-0.411zM26.925 74.777c0.737 0.387 1.284 0.91 1.64 1.57 0.366 0.658 0.521 1.415 0.467 2.271-0.048 0.859-0.322 1.766-0.822 2.719v0c-0.481 0.917-1.057 1.676-1.729 2.28-0.666 0.606-1.397 1.044-2.193 1.313v0l-0.581-1.512c0.683-0.234 1.289-0.576 1.817-1.026 0.534-0.446 0.993-1.035 1.376-1.765v0c0.435-0.83 0.599-1.632 0.493-2.407-0.11-0.768-0.546-1.352-1.308-1.752v0c-0.427-0.224-0.821-0.332-1.181-0.323-0.363 0.015-0.76 0.162-1.191 0.441-0.425 0.283-0.932 0.731-1.522 1.345v0c-1.117 1.151-2.122 1.923-3.015 2.316-0.896 0.383-1.814 0.328-2.756-0.166v0c-0.625-0.328-1.097-0.792-1.413-1.393-0.323-0.604-0.46-1.291-0.411-2.063 0.052-0.762 0.286-1.54 0.703-2.332v0c0.439-0.836 0.952-1.514 1.541-2.035 0.583-0.524 1.257-0.936 2.022-1.237v0l0.525 1.484c-1.21 0.471-2.117 1.282-2.722 2.433v0c-0.383 0.731-0.542 1.417-0.476 2.06 0.072 0.646 0.411 1.128 1.018 1.446v0c0.365 0.192 0.73 0.257 1.094 0.195 0.355-0.059 0.759-0.257 1.213-0.595 0.46-0.335 1.019-0.851 1.677-1.549v0c0.97-1.007 1.895-1.687 2.775-2.039 0.889-0.355 1.875-0.248 2.959 0.321zM24.097 63.104l10.625 6.943-0.981 1.502-10.625-6.943-2.433 3.723-1.3-0.849 5.87-8.983 1.196 1.007zM40.17 56.772l-3.536 4.411 2.131 3.161-1.115 1.391-8.201-12.543 1.423-1.776 14.008 5.3-1.161 1.448zM35.774 59.875l2.932-3.658-7.38-2.919zM45.145 41.656c0.738 0.705 1.13 1.52 1.175 2.444 0.041 0.919-0.206 1.849-0.738 2.791v0l7.492 1.285-1.493 1.562-7.109-1.398-1.326 1.388 4.413 4.218-1.233 1.289-10.296-9.842 2.515-2.632c1.218-1.274 2.381-2.005 3.489-2.193 1.118-0.188 2.155 0.174 3.111 1.088zM43.826 43.036c-0.657-0.628-1.311-0.89-1.962-0.787-0.651 0.104-1.36 0.557-2.128 1.361v0l-1.428 1.494 3.822 3.653 1.442-1.509c0.73-0.763 1.126-1.492 1.19-2.186 0.063-0.694-0.248-1.369-0.936-2.026zM50.227 34.014l8.276 9.623-1.36 1.17-8.276-9.623-3.372 2.9-1.012-1.177 8.136-6.997 0.869 1.3zM58.32 27.599l2.807 3.886 4.294-3.102 0.859 1.19-4.293 3.102 2.954 4.09 5.263-3.802 0.848 1.173-6.709 4.846-8.341-11.546 6.556-4.736 0.702 1.33zM78.217 21.729c1.356 2.334 1.763 4.265 1.219 5.794-0.549 1.532-1.61 2.755-3.181 3.669v0l-2.821 1.639-7.157-12.316 2.621-1.523c1.729-1.005 3.379-1.381 4.949-1.129 1.564 0.256 3.021 1.544 4.37 3.866zM76.557 22.694c-0.777-1.336-1.552-2.253-2.326-2.749-0.774-0.497-1.498-0.706-2.173-0.63-0.672 0.083-1.352 0.325-2.041 0.725v0l-1.451 0.844 5.692 9.794 1.469-0.854c1.058-0.615 1.728-1.494 2.01-2.636 0.288-1.146-0.105-2.644-1.18-4.494zM100.384 16.562l-5.345 1.841 0.114 3.811-1.686 0.58-0.236-14.984 2.152-0.742 9.013 11.961-1.755 0.605zM95.01 16.838l4.433-1.527-4.682-6.409zM114.186 12.553c0.2 0.808 0.171 1.564-0.087 2.269-0.249 0.71-0.712 1.329-1.387 1.857-0.674 0.535-1.534 0.931-2.58 1.19v0c-1.005 0.249-1.955 0.322-2.852 0.221-0.895-0.095-1.708-0.351-2.439-0.769v0l0.746-1.438c0.628 0.356 1.286 0.582 1.973 0.678 0.688 0.103 1.433 0.056 2.234-0.143v0c0.91-0.225 1.619-0.635 2.127-1.229 0.502-0.593 0.649-1.306 0.442-2.141v0c-0.116-0.468-0.297-0.834-0.542-1.098-0.252-0.262-0.626-0.461-1.121-0.598-0.493-0.13-1.166-0.212-2.017-0.245v0c-1.603-0.071-2.847-0.31-3.733-0.718-0.881-0.416-1.449-1.139-1.705-2.171v0c-0.17-0.686-0.135-1.346 0.104-1.982 0.237-0.642 0.661-1.201 1.27-1.676 0.605-0.467 1.342-0.808 2.21-1.023v0c0.916-0.227 1.764-0.293 2.545-0.199 0.778 0.088 1.534 0.319 2.268 0.692v0l-0.761 1.377c-1.155-0.593-2.364-0.733-3.627-0.419v0c-0.801 0.198-1.42 0.535-1.857 1.011-0.435 0.482-0.57 1.056-0.406 1.721v0c0.099 0.4 0.293 0.716 0.581 0.948 0.279 0.226 0.696 0.397 1.251 0.511 0.556 0.122 1.313 0.197 2.271 0.226v0c1.397 0.057 2.52 0.298 3.367 0.722 0.856 0.429 1.431 1.238 1.725 2.426zM136.444 10.51l-5.647 0.283-0.949 3.692-1.781 0.089 3.938-14.46 2.274-0.114 5.333 13.995-1.854 0.093zM131.205 9.281l4.682-0.235-2.715-7.457zM160.139 2.921l-1.7 12.578-1.778-0.24 1.7-12.578-4.407-0.596 0.208-1.538 10.634 1.437-0.395 1.513zM170.309 4.712l-1.042 4.679 5.171 1.15-0.319 1.434-5.171-1.151-1.095 4.925 6.337 1.411-0.314 1.413-8.078-1.798 3.093-13.904 7.895 1.756-0.529 1.408zM180.267 5.759l1.959 0.657 1.211 6.182 4.726-4.19 1.819 0.611-5.904 4.934 1.85 8.731-1.959-0.658-1.315-7.224-5.457 4.952-1.82-0.611 6.649-5.768zM197.637 14.01l-5.131 11.608-1.641-0.725 5.132-11.609-4.068-1.798 0.628-1.42 9.814 4.339-0.8 1.343zM216.684 35.59l-4.645-3.223-3.006 2.344-1.465-1.017 11.948-9.046 1.87 1.298-4.322 14.339-1.525-1.059zM213.285 31.418l3.851 2.674 2.403-7.564zM228.074 44.355c-0.533 0.639-1.16 1.063-1.882 1.271-0.72 0.219-1.493 0.211-2.318-0.022-0.83-0.228-1.658-0.687-2.484-1.377v0c-0.794-0.663-1.416-1.387-1.864-2.171-0.452-0.778-0.726-1.585-0.821-2.421v0l1.601-0.248c0.084 0.717 0.291 1.381 0.619 1.992 0.324 0.616 0.802 1.189 1.435 1.718v0c0.719 0.601 1.469 0.93 2.249 0.989 0.774 0.054 1.437-0.249 1.989-0.909v0c0.309-0.37 0.498-0.732 0.565-1.086 0.062-0.358 0.002-0.777-0.181-1.257-0.187-0.475-0.518-1.065-0.993-1.772v0c-0.89-1.335-1.432-2.48-1.628-3.436-0.185-0.956 0.063-1.843 0.744-2.659v0c0.453-0.542 1.006-0.905 1.66-1.087 0.658-0.188 1.359-0.177 2.103 0.034 0.734 0.212 1.445 0.605 2.132 1.178v0c0.725 0.605 1.279 1.25 1.663 1.936 0.389 0.68 0.65 1.426 0.783 2.238v0l-1.561 0.2c-0.205-1.282-0.806-2.34-1.805-3.174v0c-0.633-0.529-1.271-0.829-1.913-0.9-0.646-0.066-1.189 0.164-1.628 0.69v0c-0.264 0.317-0.405 0.66-0.422 1.028-0.017 0.359 0.092 0.796 0.327 1.312 0.231 0.52 0.617 1.176 1.16 1.965v0c0.78 1.161 1.249 2.209 1.407 3.143 0.159 0.944-0.153 1.885-0.937 2.825zM236.718 53.056c-0.591 0.586-1.255 0.949-1.992 1.089-0.737 0.15-1.506 0.07-2.306-0.24-0.805-0.305-1.586-0.84-2.344-1.604v0c-0.729-0.735-1.279-1.514-1.652-2.336-0.377-0.817-0.574-1.647-0.59-2.488v0l1.618-0.097c0.017 0.722 0.16 1.403 0.428 2.042 0.264 0.644 0.687 1.259 1.268 1.845v0c0.66 0.665 1.375 1.064 2.146 1.196 0.766 0.127 1.454-0.113 2.065-0.718v0c0.343-0.34 0.564-0.682 0.665-1.029 0.095-0.351 0.075-0.774-0.062-1.268-0.141-0.49-0.416-1.109-0.822-1.858v0c-0.76-1.412-1.193-2.604-1.298-3.573-0.095-0.97 0.235-1.829 0.99-2.577v0c0.502-0.497 1.086-0.806 1.754-0.927 0.673-0.126 1.37-0.049 2.091 0.231 0.711 0.28 1.381 0.738 2.012 1.374v0c0.665 0.67 1.156 1.365 1.474 2.083 0.323 0.713 0.513 1.481 0.569 2.301v0l-1.573 0.053c-0.084-1.296-0.583-2.406-1.499-3.329v0c-0.581-0.586-1.188-0.945-1.82-1.076-0.637-0.126-1.199 0.052-1.686 0.534v0c-0.293 0.29-0.465 0.619-0.516 0.985-0.051 0.356 0.016 0.801 0.202 1.335 0.181 0.54 0.504 1.228 0.971 2.067v0c0.667 1.229 1.036 2.316 1.106 3.26 0.07 0.955-0.329 1.863-1.198 2.725zM247.037 51.687l-3.683 3.068 3.39 4.07-1.128 0.94-3.39-4.07-3.877 3.229 4.156 4.989-1.112 0.926-5.297-6.358 10.944-9.118 5.177 6.214-1.279 0.792zM259.823 66.881l-11.389 8.594-0.968-1.447 5.95-4.5c1.04-0.797 2.443-1.787 4.21-2.969v0l-9.678 3.587-0.998-1.491 6.913-7.719c-0.397 0.299-0.941 0.68-1.633 1.144v0c-1.052 0.704-1.942 1.266-2.67 1.686v0l-6.394 3.837-0.945-1.412 12.287-7.251 1.395 2.083-6.824 7.343 9.338-3.586zM257.414 83.436c-1.256 0.692-2.405 0.742-3.449 0.152-1.053-0.593-1.943-1.548-2.668-2.866v0l-1.858-3.371 12.476-6.874 1.696 3.078c0.699 1.268 1.034 2.456 1.006 3.565-0.022 1.106-0.596 1.969-1.723 2.59v0c-0.747 0.412-1.471 0.519-2.17 0.321-0.7-0.197-1.308-0.585-1.826-1.161v0c0.725 2.099 0.231 3.621-1.484 4.566zM261.917 78.153c0.692-0.381 1.075-0.868 1.148-1.459 0.073-0.591-0.106-1.279-0.538-2.063v0l-1.027-1.865-4.015 2.212 1.108 2.012c0.844 1.531 1.951 1.919 3.324 1.163zM256.443 81.803c0.882-0.486 1.369-1.066 1.461-1.739 0.086-0.67-0.101-1.422-0.56-2.254v0l-1.164-2.114-4.566 2.516 1.134 2.058c0.422 0.766 0.934 1.326 1.536 1.68 0.606 0.361 1.325 0.312 2.159-0.147zM255.244 88.682l13.047-5.719 0.716 1.633-11.586 5.079 2.615 5.966-1.553 0.429zM266.105 102.119l-5.239 1.662-0.549-1.73 5.219-1.656 6.898-7.251 0.603 1.899-5.676 5.763 7.977 1.486 0.561 1.769zM23.282 183.286l-1.388 0.41-0.898-3.037-10.904 3.225 0.898 3.037-1.368 0.405-2.311-7.816 1.368-0.404 0.898 3.037 10.904-3.225-0.899-3.037 1.388-0.411zM24.279 209.723c-0.737 0.387-1.478 0.539-2.225 0.456-0.749-0.073-1.46-0.375-2.133-0.906-0.68-0.528-1.27-1.269-1.77-2.222v0c-0.481-0.917-0.778-1.823-0.893-2.718-0.121-0.892-0.065-1.743 0.167-2.551v0l1.574 0.382c-0.196 0.695-0.259 1.388-0.189 2.077 0.064 0.693 0.287 1.405 0.67 2.136v0c0.435 0.83 1.002 1.421 1.7 1.774 0.695 0.346 1.423 0.32 2.185-0.08v0c0.427-0.224 0.74-0.487 0.937-0.788 0.194-0.307 0.299-0.717 0.314-1.231 0.009-0.51-0.071-1.183-0.241-2.017v0c-0.312-1.574-0.376-2.839-0.191-3.797 0.194-0.955 0.762-1.679 1.703-2.173v0c0.625-0.328 1.275-0.452 1.949-0.371 0.68 0.077 1.324 0.356 1.931 0.836 0.597 0.476 1.104 1.111 1.519 1.903v0c0.439 0.836 0.704 1.644 0.798 2.424 0.1 0.777 0.055 1.566-0.132 2.368v0l-1.519-0.412c0.301-1.263 0.149-2.471-0.455-3.623v0c-0.383-0.731-0.858-1.252-1.424-1.562-0.572-0.308-1.162-0.303-1.768 0.015v0c-0.365 0.192-0.626 0.455-0.783 0.79-0.153 0.325-0.22 0.771-0.199 1.336 0.014 0.569 0.121 1.322 0.321 2.26v0c0.277 1.371 0.31 2.518 0.099 3.442-0.213 0.933-0.862 1.684-1.945 2.252zM36.225 212.083l-10.625 6.942-0.981-1.501 10.624-6.943-2.432-3.723 1.299-0.849 5.87 8.983-1.403 0.691zM37.348 228.603l-3.536-4.412-3.549 1.393-1.115-1.391 14.027-5.276 1.424 1.776-8.221 12.519-1.162-1.449zM35.276 223.636l2.932 3.659 4.454-6.569zM52.069 234.838c-0.738 0.705-1.57 1.06-2.495 1.064-0.92-0.001-1.838-0.289-2.755-0.864v0l-1.622 7.427-1.493-1.562 1.717-7.039-1.326-1.387-4.413 4.218-1.233-1.289 10.297-9.843 2.515 2.631c1.218 1.274 1.896 2.469 2.034 3.585 0.138 1.126-0.271 2.145-1.226 3.059zM50.75 233.458c0.657-0.628 0.949-1.27 0.874-1.924-0.074-0.655-0.496-1.384-1.264-2.188v0l-1.428-1.493-3.821 3.653 1.442 1.508c0.73 0.763 1.44 1.192 2.13 1.287 0.69 0.095 1.379-0.187 2.067-0.843zM59.673 238.114l-8.276 9.623-1.359-1.17 8.275-9.623-3.372-2.9 1.013-1.177 8.135 6.997-1.155 1.054zM66.877 243.667l-2.807 3.886 4.294 3.102-0.86 1.19-4.294-3.101-2.955 4.089 5.263 3.803-0.847 1.173-6.709-4.846 8.341-11.547 6.556 4.736-1.042 1.084zM79.972 258.361c-1.356 2.334-2.833 3.643-4.43 3.929-1.603 0.281-3.191-0.035-4.763-0.949v0l-2.82-1.639 7.157-12.316 2.621 1.524c1.729 1.005 2.873 2.252 3.431 3.741 0.552 1.486 0.153 3.389-1.196 5.71zM78.313 257.397c0.777-1.336 1.189-2.463 1.237-3.382 0.048-0.918-0.128-1.652-0.529-2.2-0.405-0.542-0.951-1.014-1.641-1.414v0l-1.451-0.844-5.692 9.795 1.469 0.854c1.058 0.615 2.153 0.762 3.286 0.441 1.139-0.317 2.245-1.4 3.321-3.25zM99.206 269.97l-5.346-1.841-2.256 3.072-1.686-0.581 9.043-11.951 2.152 0.742-0.266 14.974-1.756-0.604zM94.802 266.878l4.433 1.527 0.258-7.932zM113.467 273.459c-0.2 0.808-0.579 1.463-1.136 1.967-0.552 0.512-1.25 0.843-2.094 0.994-0.846 0.158-1.792 0.107-2.837-0.152v0c-1.005-0.249-1.88-0.628-2.625-1.137-0.747-0.502-1.346-1.108-1.797-1.818v0l1.331-0.923c0.39 0.608 0.866 1.115 1.428 1.52 0.561 0.413 1.241 0.718 2.042 0.917v0c0.91 0.225 1.728 0.194 2.455-0.094 0.72-0.29 1.184-0.852 1.39-1.687v0c0.116-0.468 0.127-0.876 0.033-1.224-0.101-0.349-0.338-0.7-0.712-1.052-0.376-0.345-0.932-0.732-1.668-1.159v0c-1.384-0.811-2.373-1.604-2.967-2.377-0.585-0.779-0.75-1.684-0.494-2.716v0c0.17-0.686 0.509-1.254 1.017-1.704 0.51-0.457 1.145-0.754 1.906-0.89 0.753-0.13 1.564-0.088 2.432 0.127v0c0.916 0.227 1.697 0.565 2.343 1.013 0.647 0.441 1.208 0.998 1.682 1.67v0l-1.316 0.863c-0.745-1.064-1.749-1.752-3.011-2.064v0c-0.801-0.198-1.506-0.189-2.114 0.027-0.61 0.223-0.998 0.668-1.162 1.333v0c-0.099 0.4-0.076 0.77 0.071 1.109 0.141 0.33 0.431 0.676 0.867 1.036 0.435 0.367 1.069 0.787 1.903 1.261v0c1.209 0.703 2.089 1.44 2.64 2.21 0.556 0.779 0.687 1.762 0.393 2.95zM136.263 276.215l-5.647-0.283-1.313 3.579-1.781-0.09 5.364-13.993 2.273 0.114 3.907 14.458-1.854-0.093zM131.173 274.469l4.682 0.234-1.956-7.691zM158.198 265.834l1.7 12.578-1.777 0.24-1.7-12.578-4.408 0.596-0.208-1.539 10.634-1.437 0.021 1.564zM167.135 264.136l1.041 4.679 5.17-1.151 0.319 1.434-5.17 1.15 1.096 4.925 6.337-1.41 0.315 1.413-8.079 1.798-3.094-13.905 7.895-1.756 0.118 1.499zM174.67 260.675l1.959-0.658 4.696 4.2 1.241-6.192 1.82-0.61-1.733 7.496 6.742 5.848-1.959 0.657-5.407-4.968-1.365 7.241-1.82 0.61 1.824-8.611zM191.78 255.852l5.131 11.608-1.64 0.726-5.132-11.609-4.067 1.798-0.628-1.42 9.814-4.338 0.455 1.496zM218.746 250.493l-4.644 3.224 1.144 3.636-1.464 1.017-4.297-14.358 1.87-1.298 11.923 9.065-1.526 1.058zM213.649 252.218l3.852-2.673-6.246-4.897zM229.989 241.051c0.533 0.639 0.838 1.332 0.915 2.078 0.087 0.748-0.059 1.506-0.436 2.277-0.373 0.776-0.972 1.509-1.799 2.198v0c-0.794 0.663-1.617 1.145-2.468 1.446-0.847 0.306-1.69 0.431-2.529 0.376v0l0.041-1.62c0.721 0.045 1.411-0.039 2.071-0.253 0.664-0.208 1.313-0.577 1.947-1.105v0c0.719-0.601 1.178-1.279 1.374-2.036 0.192-0.752 0.012-1.459-0.539-2.119v0c-0.309-0.37-0.632-0.62-0.967-0.75-0.341-0.125-0.764-0.141-1.27-0.047-0.5 0.099-1.141 0.319-1.921 0.661v0c-1.472 0.637-2.696 0.966-3.671 0.988-0.974 0.012-1.802-0.391-2.483-1.207v0c-0.453-0.542-0.711-1.151-0.774-1.827-0.068-0.681 0.069-1.369 0.409-2.063 0.34-0.684 0.853-1.313 1.541-1.887v0c0.725-0.605 1.458-1.035 2.201-1.292 0.738-0.261 1.519-0.385 2.342-0.37v0l-0.082 1.572c-1.298-0.027-2.447 0.376-3.445 1.209v0c-0.633 0.529-1.043 1.103-1.227 1.721-0.18 0.624-0.051 1.199 0.388 1.726v0c0.264 0.317 0.577 0.516 0.937 0.598 0.35 0.081 0.8 0.052 1.348-0.087 0.553-0.134 1.267-0.397 2.141-0.79v0c1.282-0.56 2.396-0.834 3.344-0.824 0.957 0.012 1.828 0.487 2.612 1.427zM238.84 232.16c0.591 0.586 0.96 1.247 1.106 1.983 0.156 0.736 0.083 1.505-0.22 2.308-0.298 0.807-0.826 1.593-1.584 2.358v0c-0.729 0.735-1.503 1.292-2.322 1.671-0.814 0.384-1.642 0.588-2.482 0.611v0l-0.111-1.616c0.722-0.023 1.401-0.172 2.038-0.447 0.642-0.27 1.253-0.698 1.834-1.283v0c0.66-0.665 1.052-1.384 1.177-2.156 0.12-0.767-0.125-1.453-0.735-2.059v0c-0.343-0.34-0.687-0.558-1.034-0.656-0.351-0.092-0.774-0.068-1.268 0.073-0.489 0.145-1.106 0.425-1.851 0.838v0c-1.406 0.772-2.593 1.215-3.562 1.328-0.969 0.103-1.831-0.22-2.585-0.968v0c-0.502-0.497-0.816-1.079-0.942-1.746-0.131-0.672-0.06-1.369 0.213-2.093 0.274-0.713 0.726-1.388 1.357-2.023v0c0.665-0.67 1.355-1.168 2.07-1.492 0.711-0.329 1.476-0.525 2.297-0.589v0l0.066 1.572c-1.295 0.095-2.401 0.604-3.316 1.528v0c-0.581 0.586-0.934 1.196-1.061 1.829-0.121 0.638 0.062 1.199 0.549 1.681v0c0.293 0.29 0.623 0.46 0.989 0.508 0.356 0.048 0.801-0.023 1.334-0.214 0.538-0.185 1.224-0.515 2.057-0.987v0c1.223-0.678 2.307-1.056 3.252-1.134 0.954-0.078 1.866 0.313 2.734 1.175zM235.809 222.072l3.683 3.068 3.391-4.07 1.128 0.94-3.39 4.07 3.876 3.229 4.156-4.989 1.112 0.927-5.297 6.359-10.944-9.117 5.176-6.214 1.01 1.114zM245.203 206.446l12.287 7.252-0.968 1.447-6.429-3.785c-1.133-0.658-2.583-1.578-4.35-2.76v0l7.007 7.58-0.998 1.49-9.772-3.447c0.428 0.253 0.988 0.611 1.68 1.073v0c1.052 0.704 1.911 1.313 2.577 1.826v0l5.985 4.447-0.945 1.413-11.389-8.594 1.395-2.084 9.39 3.508-6.876-7.265zM259.866 201.027c1.256 0.692 1.913 1.637 1.971 2.834 0.061 1.207-0.271 2.47-0.996 3.787v0l-1.858 3.371-12.476-6.873 1.696-3.078c0.699-1.268 1.524-2.186 2.476-2.755 0.946-0.573 1.983-0.548 3.109 0.072v0c0.747 0.412 1.224 0.966 1.432 1.663 0.207 0.697 0.205 1.418-0.007 2.164v0c1.387-1.735 2.938-2.13 4.653-1.185zM252.994 200.043c-0.692-0.381-1.308-0.445-1.846-0.191-0.539 0.254-1.025 0.773-1.457 1.557v0l-1.027 1.865 4.015 2.212 1.108-2.012c0.844-1.531 0.579-2.675-0.793-3.431zM259.005 202.72c-0.882-0.486-1.632-0.588-2.251-0.306-0.612 0.285-1.148 0.845-1.607 1.678v0l-1.164 2.113 4.566 2.516 1.134-2.058c0.422-0.766 0.622-1.498 0.6-2.197-0.019-0.705-0.445-1.287-1.278-1.746zM265.225 198.805l-13.047-5.719 0.716-1.633 11.586 5.078 2.615-5.965 1.368 0.851zM266.013 180.964l5.239 1.663-0.549 1.73-5.219-1.657-9.818 1.947 0.603-1.9 7.961-1.435-5.66-5.813 0.561-1.77zM5.949 141.556c0-0.916 0.743-1.659 1.659-1.659 0.916 0 1.659 0.743 1.659 1.659 0 0.916-0.743 1.659-1.659 1.659-0.916 0-1.659-0.743-1.659-1.659zM270.286 141.556c0-0.916 0.743-1.659 1.659-1.659 0.916 0 1.659 0.743 1.659 1.659 0 0.916-0.743 1.659-1.659 1.659-0.916 0-1.659-0.743-1.659-1.659z"
                     fill="#9e28af"
                     data-fill-palette-color="primary"
                     id="path17" />
                </svg>
              </g>
            </svg>
          </g>
        </svg>
      </g>
    </svg>
  </g>
</svg>
